<svg version="1.1" id="Layer_1" xmlns="http://www.w3.org/2000/svg" xmlns:xlink="http://www.w3.org/1999/xlink" x="0px" y="0px"
	 width="100%" viewBox="0 0 906 275" enable-background="new 0 0 906 275" xml:space="preserve">
<path fill="#FEFFFF" opacity="1.000000" stroke="none" 
	d="
M600.000000,276.000000 
	C400.000000,276.000000 200.500000,276.000000 1.000000,276.000000 
	C1.000000,184.333328 1.000000,92.666664 1.000000,1.000000 
	C303.000000,1.000000 605.000000,1.000000 907.000000,1.000000 
	C907.000000,92.666664 907.000000,184.333328 907.000000,276.000000 
	C804.833313,276.000000 702.666687,276.000000 600.000000,276.000000 
M389.538269,158.975739 
	C388.021423,160.521881 386.571442,162.140900 384.977478,163.602966 
	C368.114410,179.070053 342.783661,180.657333 325.259430,166.093674 
	C311.419403,154.591782 304.662476,139.462463 304.107666,122.080994 
	C303.315887,97.273376 303.900146,72.421921 303.890991,47.589184 
	C303.887451,38.031570 303.868835,38.317924 294.429657,37.940468 
	C289.223480,37.732281 287.975616,39.588768 288.025879,44.527477 
	C288.258209,67.357986 287.890198,90.195976 288.253113,113.023071 
	C288.386719,121.426666 289.460083,129.893051 290.935791,138.182877 
	C295.218933,162.243637 317.420410,188.349609 345.073914,191.340912 
	C367.144196,193.728271 385.793060,187.279129 399.166473,168.613846 
	C400.031433,167.406616 400.979950,166.259247 402.597839,164.168991 
	C404.100403,185.201614 401.696014,203.523132 388.323547,219.339645 
	C371.623260,239.092163 343.095093,241.481995 323.792389,224.726730 
	C315.644440,217.654099 310.878937,208.877777 307.030792,199.204956 
	C306.393097,197.602112 304.849701,195.382904 303.507538,195.218094 
	C299.293732,194.700638 294.976227,195.027695 290.796234,195.027695 
	C290.656189,195.990189 290.521606,196.328583 290.574677,196.634399 
	C293.390320,212.857880 301.507233,225.999832 313.532654,237.070465 
	C324.167938,246.861374 336.751007,252.315369 350.918854,252.710510 
	C374.504883,253.368332 392.212219,242.292969 405.347748,223.105362 
	C415.993408,207.554794 418.590424,189.868484 418.719727,171.751099 
	C419.013519,130.587448 418.766022,89.420181 418.825165,48.254501 
	C418.843170,35.728161 418.422607,38.599060 408.541565,37.950020 
	C403.617004,37.626549 402.821716,39.597561 402.851318,43.926346 
	C403.018646,68.424675 402.939362,92.924805 402.915161,117.424286 
	C402.900330,132.437454 399.717072,146.470718 389.538269,158.975739 
M641.942932,193.708115 
	C647.577087,193.485474 653.235107,193.519455 658.841492,192.997925 
	C691.630188,189.947678 724.594482,159.768097 726.864258,120.476540 
	C728.323792,95.209366 719.895996,73.783539 701.065674,56.637699 
	C678.337036,35.942242 651.752502,31.099886 623.135437,39.894257 
	C600.770325,46.767334 584.578430,62.136436 575.355103,83.716896 
	C565.216187,107.439331 566.012451,131.343033 579.097656,153.733307 
	C592.824768,177.222076 613.217407,191.429749 641.942932,193.708115 
M875.865967,160.500000 
	C875.855286,147.003510 875.956238,133.505783 875.807922,120.010796 
	C875.580627,99.327728 870.333435,80.303741 856.948792,64.001549 
	C838.933533,42.059433 814.131531,33.493874 788.028442,40.668880 
	C757.388611,49.090900 736.412537,80.071960 735.253967,111.077972 
	C734.302612,136.536911 735.004517,162.057892 734.999023,187.551361 
	C734.998657,189.157700 735.219055,190.764069 735.328796,192.261932 
	C749.605225,194.602844 749.988281,194.295517 749.974548,180.935059 
	C749.972961,179.435440 749.951050,177.935547 749.971130,176.436234 
	C750.289490,152.642853 749.100098,128.704590 751.362061,105.097099 
	C753.613953,81.594910 767.736816,64.426781 790.288757,57.096252 
	C815.440125,48.920761 837.423767,59.959244 851.621826,83.114967 
	C860.345093,97.341789 860.457458,113.218971 860.802368,128.980286 
	C861.195984,146.967209 860.821838,164.969742 860.925598,182.964661 
	C860.993774,194.801270 859.215576,192.473083 871.002991,192.898209 
	C874.728394,193.032547 876.004211,191.676727 875.927368,187.992111 
	C875.743225,179.164825 875.867004,170.331116 875.865967,160.500000 
M497.920929,63.998901 
	C498.925812,65.964577 499.657196,69.373047 500.986938,69.625160 
	C504.961304,70.378677 509.170044,69.895935 513.572510,69.895935 
	C513.959106,59.481506 510.611938,51.513935 503.301758,44.677139 
	C489.328400,31.608706 468.873138,33.016953 456.258026,48.386639 
	C445.636658,61.327213 448.944397,82.863228 463.081085,93.001778 
	C468.808624,97.109444 475.109924,98.869720 482.202362,99.109100 
	C499.120758,99.680092 511.945770,107.626984 518.989990,122.993950 
	C526.481689,139.336960 522.988281,154.582214 510.948547,167.578629 
	C493.233429,186.701385 458.590637,182.048477 446.533173,158.841385 
	C443.317139,152.651489 441.837189,145.559586 439.252991,137.980835 
	C437.926361,137.980835 435.475830,137.983688 433.025299,137.980301 
	C425.432007,137.969772 425.042572,138.620132 426.367828,146.351273 
	C428.623993,159.512924 435.331757,169.937805 444.708740,179.266190 
	C460.472321,194.947906 479.128113,198.431854 499.336914,191.750198 
	C520.288269,184.823029 533.677063,170.054947 537.166138,147.709335 
	C540.634766,125.494644 531.922058,107.963890 514.627930,94.625954 
	C505.344666,87.466278 494.304779,84.302834 482.475494,83.991646 
	C471.974915,83.715401 465.808319,78.387497 465.248230,68.445465 
	C464.755585,59.700779 468.391541,54.189491 477.548462,51.566769 
	C486.322968,49.053574 494.125641,53.562664 497.920929,63.998901 
M129.500000,192.009460 
	C141.833252,192.010788 154.166504,192.016434 166.499756,192.012039 
	C176.074371,192.008636 175.767410,191.989838 176.174164,182.544220 
	C176.386856,177.604782 174.469986,176.856903 170.159241,176.879211 
	C140.326782,177.033630 110.493103,176.977219 80.659866,176.943405 
	C72.108482,176.933701 73.088493,177.863892 73.082161,169.594971 
	C73.051262,129.261749 73.069412,88.928497 73.060356,48.595249 
	C73.058159,38.798412 73.036789,38.986832 63.311020,38.767063 
	C59.228683,38.674816 57.888023,39.788109 57.900928,44.038719 
	C58.045639,91.704834 58.042706,139.371658 57.919025,187.037872 
	C57.908726,191.007782 59.056152,192.137772 63.000835,192.105515 
	C84.832687,191.926849 106.666718,192.013641 129.500000,192.009460 
M193.080322,66.500000 
	C193.077011,60.500896 193.079971,54.501778 193.068970,48.502689 
	C193.051147,38.787144 193.042969,38.985912 183.211533,38.773041 
	C179.024155,38.682373 177.892105,40.010288 177.902618,44.142811 
	C178.023270,91.635689 178.025558,139.129272 177.843414,186.621857 
	C177.825806,191.213104 179.346420,192.124100 183.583237,192.104538 
	C217.910995,191.945999 252.239807,192.010162 286.568298,192.011108 
	C296.011505,192.011353 295.765350,192.010040 296.095642,182.458527 
	C296.249786,177.999527 294.909027,176.847885 290.514038,176.874924 
	C260.186127,177.061447 229.856537,176.973068 199.527481,176.973068 
	C197.582596,176.973053 195.637711,176.973053 193.080490,176.973053 
	C193.080490,140.052124 193.080490,103.776062 193.080322,66.500000 
M28.988213,57.500454 
	C28.988605,99.450790 28.962875,141.401169 29.008396,183.351456 
	C29.019299,193.397598 27.650833,191.611084 37.760777,192.104630 
	C42.731865,192.347336 44.233379,191.072342 44.208687,185.858185 
	C43.991905,140.080093 44.164284,94.300301 44.043495,48.521481 
	C44.011456,36.377594 46.603474,38.370422 33.026451,38.054844 
	C30.033829,37.985287 28.821394,38.915314 28.944288,42.019871 
	C29.135086,46.839844 28.990562,51.673092 28.988213,57.500454 
M561.068909,143.500000 
	C561.064087,111.192528 561.087524,78.885002 561.037292,46.577602 
	C561.022095,36.789062 562.250977,38.231133 552.542053,38.137215 
	C545.999451,38.073925 545.993958,38.130684 545.993286,44.802166 
	C545.989014,90.432327 545.984131,136.062485 545.986084,181.692642 
	C545.986572,192.250854 545.998718,192.095444 556.653625,192.102570 
	C560.255737,192.104980 561.154968,190.842010 561.121704,187.464996 
	C560.980652,173.144562 561.067505,158.821869 561.068909,143.500000 
M658.933411,218.002762 
	C664.589905,218.005417 670.250183,217.880051 675.901978,218.043594 
	C682.744202,218.241608 686.759827,221.565475 687.117676,226.991257 
	C687.561829,233.726257 683.602417,237.614136 675.916931,237.989731 
	C663.966614,238.573746 663.966919,238.573776 663.851074,229.257629 
	C663.840698,228.426147 664.165833,227.291214 663.746887,226.818192 
	C662.275696,225.157028 660.547424,223.723587 658.916626,222.203705 
	C657.640320,223.809662 655.456726,225.313965 655.263184,227.041290 
	C654.747620,231.641754 655.153198,236.339417 655.066711,240.996109 
	C655.010132,244.040527 656.466187,245.075241 659.360413,245.033386 
	C666.512756,244.929916 673.674927,245.187683 680.819214,244.923599 
	C689.590820,244.599365 696.075500,237.011200 695.935913,227.690872 
	C695.803467,218.853333 689.030701,211.327011 680.611877,211.059555 
	C673.465210,210.832535 666.300781,210.864349 659.156433,211.120941 
	C657.787842,211.170090 656.476074,212.797791 655.138062,213.697250 
	C656.104370,215.125458 657.070679,216.553665 658.933411,218.002762 
M731.517944,210.997375 
	C728.685913,210.998856 725.852234,210.936752 723.022217,211.013763 
	C714.619629,211.242462 708.042419,218.583176 707.996582,227.720764 
	C707.948914,237.225159 714.432922,244.800400 722.958862,244.966873 
	C729.952942,245.103455 736.953918,244.899918 743.947510,245.049225 
	C746.913086,245.112534 748.168274,244.217499 748.018372,241.068237 
	C747.804810,236.581314 747.900330,232.072678 748.037354,227.578613 
	C748.123535,224.753479 747.885925,222.737869 744.167908,222.846909 
	C740.723694,222.947952 740.085754,224.678345 740.002869,227.618134 
	C739.708923,238.041916 739.641479,238.039948 729.108459,237.995529 
	C728.775269,237.994125 728.442078,237.999542 728.108948,237.994080 
	C721.229431,237.881165 716.055054,233.593643 716.047729,228.001221 
	C716.040405,222.441772 721.234741,218.100067 728.120850,218.017670 
	C733.617493,217.951874 739.117188,217.917770 744.612183,218.033432 
	C747.257751,218.089127 748.099548,216.916168 748.112915,214.442032 
	C748.126831,211.859726 747.054077,210.887665 744.503235,210.967712 
	C740.509094,211.093048 736.507996,210.998749 731.517944,210.997375 
M793.907776,235.433533 
	C792.640686,238.361374 791.373596,241.289230 790.054016,244.338455 
	C798.304871,245.808990 798.858887,245.452850 801.814758,239.041397 
	C804.428467,233.372040 807.270996,227.808136 810.575500,221.045578 
	C814.125793,228.159409 817.135376,234.210800 820.164246,240.252594 
	C822.940613,245.790695 824.552185,246.346725 831.189636,243.721878 
	C826.292358,233.572754 821.617004,223.343063 816.425049,213.382690 
	C814.263367,209.235855 806.676758,209.950195 804.475647,214.220444 
	C800.971069,221.019485 797.622070,227.898712 793.907776,235.433533 
M776.045227,230.515549 
	C776.045471,233.677307 776.133240,236.842194 776.020935,239.999954 
	C775.911377,243.081009 776.516357,245.045914 780.320251,245.090576 
	C784.148621,245.135498 784.163208,242.955215 784.103027,240.259476 
	C784.028748,236.932968 784.056641,233.603241 784.091736,230.275436 
	C784.220947,218.028900 782.303528,217.563583 796.017944,218.019119 
	C798.487427,218.101135 800.110291,217.730850 800.152283,214.595642 
	C800.198608,211.136902 798.304993,210.953308 795.695557,210.970200 
	C785.378662,211.036987 775.061035,211.019485 764.743835,210.982590 
	C762.220459,210.973572 760.025757,211.079300 760.037537,214.510208 
	C760.049316,217.941086 762.263672,217.969238 764.771851,218.027863 
	C776.044983,218.291245 776.044250,218.322479 776.045227,230.515549 
M869.944092,242.373825 
	C870.362488,239.261292 869.289551,237.791473 865.867432,237.937927 
	C860.728210,238.157852 855.570679,238.082855 850.424377,237.972977 
	C841.823181,237.789337 837.988037,233.898056 837.923340,225.457428 
	C837.897888,222.135910 837.813293,218.810013 837.943909,215.493530 
	C838.067139,212.364334 836.864685,211.003098 833.610352,210.927628 
	C830.210144,210.848755 829.201477,212.618652 829.169678,215.489243 
	C829.123718,219.640732 828.922913,223.810455 829.216858,227.941895 
	C830.033813,239.423996 839.016663,246.022110 847.815247,245.117111 
	C853.567383,244.525467 859.433960,245.126175 865.239929,244.924942 
	C866.798035,244.870941 868.322021,243.836090 869.944092,242.373825 
M758.005432,236.435242 
	C758.004517,229.121140 757.938843,221.806137 758.037842,214.493393 
	C758.072510,211.929245 757.059814,210.517838 754.559326,211.085556 
	C752.966431,211.447220 750.295959,212.605118 750.269226,213.472519 
	C749.972778,223.103104 749.976013,232.750931 750.308594,242.379944 
	C750.340454,243.302017 753.113525,244.732513 754.657959,244.792343 
	C755.731750,244.833908 757.304871,243.120331 757.875549,241.842758 
	C758.433167,240.594437 758.002319,238.904541 758.005432,236.435242 
M697.994202,238.381256 
	C697.994080,238.878281 698.001160,239.375427 697.992737,239.872314 
	C697.947571,242.551529 697.491211,245.202454 701.788025,245.096954 
	C705.629089,245.002640 706.022583,242.980469 705.990540,239.967789 
	C705.902649,231.684998 705.896912,223.400101 705.984802,215.117371 
	C706.016174,212.165436 704.845642,211.019516 701.870483,210.928665 
	C698.733398,210.832855 697.889465,212.117828 697.946106,215.043716 
	C698.090271,222.496246 697.994080,229.953430 697.994202,238.381256 
z"/>
<path fill="#7AFAFC" opacity="1.000000" stroke="none" 
	d="
M389.780396,158.712692 
	C399.717072,146.470718 402.900330,132.437454 402.915161,117.424286 
	C402.939362,92.924805 403.018646,68.424675 402.851318,43.926346 
	C402.821716,39.597561 403.617004,37.626549 408.541565,37.950020 
	C418.422607,38.599060 418.843170,35.728161 418.825165,48.254501 
	C418.766022,89.420181 419.013519,130.587448 418.719727,171.751099 
	C418.590424,189.868484 415.993408,207.554794 405.347748,223.105362 
	C392.212219,242.292969 374.504883,253.368332 350.918854,252.710510 
	C336.751007,252.315369 324.167938,246.861374 313.532654,237.070465 
	C301.507233,225.999832 293.390320,212.857880 290.574677,196.634399 
	C290.521606,196.328583 290.656189,195.990189 290.796234,195.027695 
	C294.976227,195.027695 299.293732,194.700638 303.507538,195.218094 
	C304.849701,195.382904 306.393097,197.602112 307.030792,199.204956 
	C310.878937,208.877777 315.644440,217.654099 323.792389,224.726730 
	C343.095093,241.481995 371.623260,239.092163 388.323547,219.339645 
	C401.696014,203.523132 404.100403,185.201614 402.597839,164.168991 
	C400.979950,166.259247 400.031433,167.406616 399.166473,168.613846 
	C385.793060,187.279129 367.144196,193.728271 345.073914,191.340912 
	C317.420410,188.349609 295.218933,162.243637 290.935791,138.182877 
	C289.460083,129.893051 288.386719,121.426666 288.253113,113.023071 
	C287.890198,90.195976 288.258209,67.357986 288.025879,44.527477 
	C287.975616,39.588768 289.223480,37.732281 294.429657,37.940468 
	C303.868835,38.317924 303.887451,38.031570 303.890991,47.589184 
	C303.900146,72.421921 303.315887,97.273376 304.107666,122.080994 
	C304.662476,139.462463 311.419403,154.591782 325.259430,166.093674 
	C342.783661,180.657333 368.114410,179.070053 384.977478,163.602966 
	C386.571442,162.140900 388.021423,160.521881 389.780396,158.712692 
z"/>
<path fill="#7AFAFC" opacity="1.000000" stroke="none" 
	d="
M641.500244,193.584335 
	C613.217407,191.429749 592.824768,177.222076 579.097656,153.733307 
	C566.012451,131.343033 565.216187,107.439331 575.355103,83.716896 
	C584.578430,62.136436 600.770325,46.767334 623.135437,39.894257 
	C651.752502,31.099886 678.337036,35.942242 701.065674,56.637699 
	C719.895996,73.783539 728.323792,95.209366 726.864258,120.476540 
	C724.594482,159.768097 691.630188,189.947678 658.841492,192.997925 
	C653.235107,193.519455 647.577087,193.485474 641.500244,193.584335 
M704.639160,85.984306 
	C689.803467,57.721172 657.302612,44.163395 627.211304,54.634476 
	C601.138367,63.707279 583.649170,88.154297 584.153137,115.959900 
	C584.491272,134.610382 591.719055,150.296097 605.969421,162.743393 
	C623.449158,178.011429 643.696899,182.386490 665.417847,176.135513 
	C704.195312,164.975891 722.195862,123.087479 704.639160,85.984306 
z"/>
<path fill="#79FAFC" opacity="1.000000" stroke="none" 
	d="
M875.866211,161.000000 
	C875.867004,170.331116 875.743225,179.164825 875.927368,187.992111 
	C876.004211,191.676727 874.728394,193.032547 871.002991,192.898209 
	C859.215576,192.473083 860.993774,194.801270 860.925598,182.964661 
	C860.821838,164.969742 861.195984,146.967209 860.802368,128.980286 
	C860.457458,113.218971 860.345093,97.341789 851.621826,83.114967 
	C837.423767,59.959244 815.440125,48.920761 790.288757,57.096252 
	C767.736816,64.426781 753.613953,81.594910 751.362061,105.097099 
	C749.100098,128.704590 750.289490,152.642853 749.971130,176.436234 
	C749.951050,177.935547 749.972961,179.435440 749.974548,180.935059 
	C749.988281,194.295517 749.605225,194.602844 735.328796,192.261932 
	C735.219055,190.764069 734.998657,189.157700 734.999023,187.551361 
	C735.004517,162.057892 734.302612,136.536911 735.253967,111.077972 
	C736.412537,80.071960 757.388611,49.090900 788.028442,40.668880 
	C814.131531,33.493874 838.933533,42.059433 856.948792,64.001549 
	C870.333435,80.303741 875.580627,99.327728 875.807922,120.010796 
	C875.956238,133.505783 875.855286,147.003510 875.866211,161.000000 
z"/>
<path fill="#7AFAFC" opacity="1.000000" stroke="none" 
	d="
M497.799561,63.614044 
	C494.125641,53.562664 486.322968,49.053574 477.548462,51.566769 
	C468.391541,54.189491 464.755585,59.700779 465.248230,68.445465 
	C465.808319,78.387497 471.974915,83.715401 482.475494,83.991646 
	C494.304779,84.302834 505.344666,87.466278 514.627930,94.625954 
	C531.922058,107.963890 540.634766,125.494644 537.166138,147.709335 
	C533.677063,170.054947 520.288269,184.823029 499.336914,191.750198 
	C479.128113,198.431854 460.472321,194.947906 444.708740,179.266190 
	C435.331757,169.937805 428.623993,159.512924 426.367828,146.351273 
	C425.042572,138.620132 425.432007,137.969772 433.025299,137.980301 
	C435.475830,137.983688 437.926361,137.980835 439.252991,137.980835 
	C441.837189,145.559586 443.317139,152.651489 446.533173,158.841385 
	C458.590637,182.048477 493.233429,186.701385 510.948547,167.578629 
	C522.988281,154.582214 526.481689,139.336960 518.989990,122.993950 
	C511.945770,107.626984 499.120758,99.680092 482.202362,99.109100 
	C475.109924,98.869720 468.808624,97.109444 463.081085,93.001778 
	C448.944397,82.863228 445.636658,61.327213 456.258026,48.386639 
	C468.873138,33.016953 489.328400,31.608706 503.301758,44.677139 
	C510.611938,51.513935 513.959106,59.481506 513.572510,69.895935 
	C509.170044,69.895935 504.961304,70.378677 500.986938,69.625160 
	C499.657196,69.373047 498.925812,65.964577 497.799561,63.614044 
z"/>
<path fill="#79F9FB" opacity="1.000000" stroke="none" 
	d="
M129.000000,192.009460 
	C106.666718,192.013641 84.832687,191.926849 63.000835,192.105515 
	C59.056152,192.137772 57.908726,191.007782 57.919025,187.037872 
	C58.042706,139.371658 58.045639,91.704834 57.900928,44.038719 
	C57.888023,39.788109 59.228683,38.674816 63.311020,38.767063 
	C73.036789,38.986832 73.058159,38.798412 73.060356,48.595249 
	C73.069412,88.928497 73.051262,129.261749 73.082161,169.594971 
	C73.088493,177.863892 72.108482,176.933701 80.659866,176.943405 
	C110.493103,176.977219 140.326782,177.033630 170.159241,176.879211 
	C174.469986,176.856903 176.386856,177.604782 176.174164,182.544220 
	C175.767410,191.989838 176.074371,192.008636 166.499756,192.012039 
	C154.166504,192.016434 141.833252,192.010788 129.000000,192.009460 
z"/>
<path fill="#79F9FB" opacity="1.000000" stroke="none" 
	d="
M193.080414,67.000000 
	C193.080490,103.776062 193.080490,140.052124 193.080490,176.973053 
	C195.637711,176.973053 197.582596,176.973053 199.527481,176.973068 
	C229.856537,176.973068 260.186127,177.061447 290.514038,176.874924 
	C294.909027,176.847885 296.249786,177.999527 296.095642,182.458527 
	C295.765350,192.010040 296.011505,192.011353 286.568298,192.011108 
	C252.239807,192.010162 217.910995,191.945999 183.583237,192.104538 
	C179.346420,192.124100 177.825806,191.213104 177.843414,186.621857 
	C178.025558,139.129272 178.023270,91.635689 177.902618,44.142811 
	C177.892105,40.010288 179.024155,38.682373 183.211533,38.773041 
	C193.042969,38.985912 193.051147,38.787144 193.068970,48.502689 
	C193.079971,54.501778 193.077011,60.500896 193.080414,67.000000 
z"/>
<path fill="#78F9FC" opacity="1.000000" stroke="none" 
	d="
M28.988201,57.000580 
	C28.990562,51.673092 29.135086,46.839844 28.944288,42.019871 
	C28.821394,38.915314 30.033829,37.985287 33.026451,38.054844 
	C46.603474,38.370422 44.011456,36.377594 44.043495,48.521481 
	C44.164284,94.300301 43.991905,140.080093 44.208687,185.858185 
	C44.233379,191.072342 42.731865,192.347336 37.760777,192.104630 
	C27.650833,191.611084 29.019299,193.397598 29.008396,183.351456 
	C28.962875,141.401169 28.988605,99.450790 28.988201,57.000580 
z"/>
<path fill="#79F9FB" opacity="1.000000" stroke="none" 
	d="
M561.070007,144.000000 
	C561.067505,158.821869 560.980652,173.144562 561.121704,187.464996 
	C561.154968,190.842010 560.255737,192.104980 556.653625,192.102570 
	C545.998718,192.095444 545.986572,192.250854 545.986084,181.692642 
	C545.984131,136.062485 545.989014,90.432327 545.993286,44.802166 
	C545.993958,38.130684 545.999451,38.073925 552.542053,38.137215 
	C562.250977,38.231133 561.022095,36.789062 561.037292,46.577602 
	C561.087524,78.885002 561.064087,111.192528 561.070007,144.000000 
z"/>
<path fill="#C5C5C5" opacity="1.000000" stroke="none" 
	d="
M658.485229,217.992325 
	C657.070679,216.553665 656.104370,215.125458 655.138062,213.697235 
	C656.476074,212.797791 657.787842,211.170090 659.156433,211.120941 
	C666.300781,210.864349 673.465210,210.832535 680.611877,211.059555 
	C689.030701,211.327011 695.803467,218.853333 695.935913,227.690872 
	C696.075500,237.011200 689.590820,244.599365 680.819214,244.923599 
	C673.674927,245.187683 666.512756,244.929916 659.360413,245.033386 
	C656.466187,245.075241 655.010132,244.040527 655.066711,240.996109 
	C655.153198,236.339417 654.747620,231.641754 655.263184,227.041290 
	C655.456726,225.313965 657.640320,223.809662 658.916626,222.203705 
	C660.547424,223.723587 662.275696,225.157028 663.746887,226.818192 
	C664.165833,227.291214 663.840698,228.426147 663.851074,229.257629 
	C663.966919,238.573776 663.966614,238.573746 675.916931,237.989731 
	C683.602417,237.614136 687.561829,233.726257 687.117676,226.991257 
	C686.759827,221.565475 682.744202,218.241608 675.901978,218.043594 
	C670.250183,217.880051 664.589905,218.005417 658.485229,217.992325 
z"/>
<path fill="#C4C4C4" opacity="1.000000" stroke="none" 
	d="
M732.013916,210.997437 
	C736.507996,210.998749 740.509094,211.093048 744.503235,210.967712 
	C747.054077,210.887665 748.126831,211.859726 748.112915,214.442032 
	C748.099548,216.916168 747.257751,218.089127 744.612183,218.033432 
	C739.117188,217.917770 733.617493,217.951874 728.120850,218.017670 
	C721.234741,218.100067 716.040405,222.441772 716.047729,228.001221 
	C716.055054,233.593643 721.229431,237.881165 728.108948,237.994080 
	C728.442078,237.999542 728.775269,237.994125 729.108459,237.995529 
	C739.641479,238.039948 739.708923,238.041916 740.002869,227.618134 
	C740.085754,224.678345 740.723694,222.947952 744.167908,222.846909 
	C747.885925,222.737869 748.123535,224.753479 748.037354,227.578613 
	C747.900330,232.072678 747.804810,236.581314 748.018372,241.068237 
	C748.168274,244.217499 746.913086,245.112534 743.947510,245.049225 
	C736.953918,244.899918 729.952942,245.103455 722.958862,244.966873 
	C714.432922,244.800400 707.948914,237.225159 707.996582,227.720764 
	C708.042419,218.583176 714.619629,211.242462 723.022217,211.013763 
	C725.852234,210.936752 728.685913,210.998856 732.013916,210.997437 
z"/>
<path fill="#C5C5C5" opacity="1.000000" stroke="none" 
	d="
M794.057495,235.088776 
	C797.622070,227.898712 800.971069,221.019485 804.475647,214.220444 
	C806.676758,209.950195 814.263367,209.235855 816.425049,213.382690 
	C821.617004,223.343063 826.292358,233.572754 831.189636,243.721878 
	C824.552185,246.346725 822.940613,245.790695 820.164246,240.252594 
	C817.135376,234.210800 814.125793,228.159409 810.575500,221.045578 
	C807.270996,227.808136 804.428467,233.372040 801.814758,239.041397 
	C798.858887,245.452850 798.304871,245.808990 790.054016,244.338455 
	C791.373596,241.289230 792.640686,238.361374 794.057495,235.088776 
z"/>
<path fill="#C4C4C4" opacity="1.000000" stroke="none" 
	d="
M776.045288,230.023651 
	C776.044250,218.322479 776.044983,218.291245 764.771851,218.027863 
	C762.263672,217.969238 760.049316,217.941086 760.037537,214.510208 
	C760.025757,211.079300 762.220459,210.973572 764.743835,210.982590 
	C775.061035,211.019485 785.378662,211.036987 795.695557,210.970200 
	C798.304993,210.953308 800.198608,211.136902 800.152283,214.595642 
	C800.110291,217.730850 798.487427,218.101135 796.017944,218.019119 
	C782.303528,217.563583 784.220947,218.028900 784.091736,230.275436 
	C784.056641,233.603241 784.028748,236.932968 784.103027,240.259476 
	C784.163208,242.955215 784.148621,245.135498 780.320251,245.090576 
	C776.516357,245.045914 775.911377,243.081009 776.020935,239.999954 
	C776.133240,236.842194 776.045471,233.677307 776.045288,230.023651 
z"/>
<path fill="#C5C5C5" opacity="1.000000" stroke="none" 
	d="
M869.902893,242.812668 
	C868.322021,243.836090 866.798035,244.870941 865.239929,244.924942 
	C859.433960,245.126175 853.567383,244.525467 847.815247,245.117111 
	C839.016663,246.022110 830.033813,239.423996 829.216858,227.941895 
	C828.922913,223.810455 829.123718,219.640732 829.169678,215.489243 
	C829.201477,212.618652 830.210144,210.848755 833.610352,210.927628 
	C836.864685,211.003098 838.067139,212.364334 837.943909,215.493530 
	C837.813293,218.810013 837.897888,222.135910 837.923340,225.457428 
	C837.988037,233.898056 841.823181,237.789337 850.424377,237.972977 
	C855.570679,238.082855 860.728210,238.157852 865.867432,237.937927 
	C869.289551,237.791473 870.362488,239.261292 869.902893,242.812668 
z"/>
<path fill="#C5C5C5" opacity="1.000000" stroke="none" 
	d="
M758.005371,236.921875 
	C758.002319,238.904541 758.433167,240.594437 757.875549,241.842758 
	C757.304871,243.120331 755.731750,244.833908 754.657959,244.792343 
	C753.113525,244.732513 750.340454,243.302017 750.308594,242.379944 
	C749.976013,232.750931 749.972778,223.103104 750.269226,213.472519 
	C750.295959,212.605118 752.966431,211.447220 754.559326,211.085556 
	C757.059814,210.517838 758.072510,211.929245 758.037842,214.493393 
	C757.938843,221.806137 758.004517,229.121140 758.005371,236.921875 
z"/>
<path fill="#C5C5C5" opacity="1.000000" stroke="none" 
	d="
M697.994141,237.895004 
	C697.994080,229.953430 698.090271,222.496246 697.946106,215.043716 
	C697.889465,212.117828 698.733398,210.832855 701.870483,210.928665 
	C704.845642,211.019516 706.016174,212.165436 705.984802,215.117371 
	C705.896912,223.400101 705.902649,231.684998 705.990540,239.967789 
	C706.022583,242.980469 705.629089,245.002640 701.788025,245.096954 
	C697.491211,245.202454 697.947571,242.551529 697.992737,239.872314 
	C698.001160,239.375427 697.994080,238.878281 697.994141,237.895004 
z"/>
<path fill="#FDFFFF" opacity="1.000000" stroke="none" 
	d="
M704.803589,86.321861 
	C722.195862,123.087479 704.195312,164.975891 665.417847,176.135513 
	C643.696899,182.386490 623.449158,178.011429 605.969421,162.743393 
	C591.719055,150.296097 584.491272,134.610382 584.153137,115.959900 
	C583.649170,88.154297 601.138367,63.707279 627.211304,54.634476 
	C657.302612,44.163395 689.803467,57.721172 704.803589,86.321861 
z"/>
</svg>